<svg version="1.1" id="图层_1" x="0px" y="0px" width="167px" height="170.383px" viewBox="0 0 167 170.383" enable-background="new 0 0 167 170.383" xml:space="preserve" xmlns="http://www.w3.org/2000/svg" xmlns:xlink="http://www.w3.org/1999/xlink" xmlns:xml="http://www.w3.org/XML/1998/namespace" 
style="transform: rotate(0deg) scale(1, 1); opacity: 1; position: absolute; backface-visibility: hidden; width: 172.55px; height: 175.65px; overflow: visible;"><defs class="defs"></defs>
  <path fill="#00B8AA" d="M30.763,28.473c5.573-4.415,13.739-3.522,18.222,2.017l4.927,6.093l20.446-15.749l-5.155-6.374
	C55.78-2.135,31.25-4.848,14.524,8.412C6.166,15.045,1.318,24.419,0.233,34.215c-1.083,9.809,1.596,20.024,8.309,28.316
	l39.172,48.404l20.218-16.023L28.77,46.5C24.288,40.983,25.181,32.89,30.763,28.473z" class="color c1"></path>
  <path fill="#FFA73C" d="M158.755,109.258l-37.832-47.251l-19.569,15.678l37.822,47.25c4.326,5.394,3.45,13.312-1.95,17.628
	c-5.391,4.317-13.289,3.444-17.625-1.95l-4.341-5.43l-19.762,15.448l4.538,5.661c12.96,16.196,36.689,18.818,52.871,5.846
	c8.098-6.486,12.802-15.656,13.863-25.229C167.828,127.335,165.241,117.357,158.755,109.258z" class="color c2"></path>
  <path fill="#0080B2" d="M158.756,14.092C152.27,5.994,143.11,1.291,133.533,0.23c-9.583-1.059-19.557,1.528-27.648,8.016
	L58.633,46.077l15.678,19.566l47.25-37.822c5.396-4.325,13.306-3.452,17.62,1.949c4.32,5.392,3.45,13.29-1.949,17.626l-6.134,4.906
	l15.31,19.875l6.502-5.214C169.105,54.001,171.728,30.272,158.756,14.092z" class="color c3"></path>
  <path fill="#EA6675" d="M93.769,104.336l-47.785,38.051c-5.455,4.347-13.467,3.463-17.832-1.975
	c-4.369-5.436-3.49-13.383,1.965-17.744l5.554-4.42L20.079,98.302l-5.843,4.658c-16.372,13.031-19.015,36.93-5.884,53.224
	c6.569,8.157,15.853,12.894,25.537,13.965c9.688,1.072,19.775-1.523,27.97-8.047l47.777-38.063L93.769,104.336z" class="color c4"></path>
</svg>