<?xml version="1.0" standalone="no"?><!DOCTYPE svg PUBLIC "-//W3C//DTD SVG 1.1//EN"
        "http://www.w3.org/Graphics/SVG/1.1/DTD/svg11.dtd">
<svg t="1712627622108" class="icon" viewBox="0 0 1024 1024" version="1.1" xmlns="http://www.w3.org/2000/svg" p-id="5200"
     xmlns:xlink="http://www.w3.org/1999/xlink" width="200" height="200">
    <path d="M0.051292 0m5.128976 0l482.328876 0q5.128976 0 5.128975 5.128976l0 482.328875q0 5.128976-5.128975 5.128976l-482.328876 0q-5.128976 0-5.128976-5.128976l0-482.328875q0-5.128976 5.128976-5.128976Z"
          fill="#0099FF" p-id="5201"></path>
    <path d="M531.310596 0m2.15417 0l488.278487 0q2.15417 0 2.15417 2.15417l0 488.278487q0 2.15417-2.15417 2.15417l-488.278487 0q-2.15417 0-2.15417-2.15417l0-488.278487q0-2.15417 2.15417-2.15417Z"
          fill="#00D9FC" p-id="5202"></path>
    <path d="M0.051292 531.413173m5.128976 0l482.328876 0q5.128976 0 5.128975 5.128976l0 482.328875q0 5.128976-5.128975 5.128976l-482.328876 0q-5.128976 0-5.128976-5.128976l0-482.328875q0-5.128976 5.128976-5.128976Z"
          fill="#0053FF" p-id="5203"></path>
    <path d="M531.310596 531.413173m2.15417 0l488.278487 0q2.15417 0 2.15417 2.15417l0 488.278487q0 2.15417-2.15417 2.15417l-488.278487 0q-2.15417 0-2.15417-2.15417l0-488.278487q0-2.15417 2.15417-2.15417Z"
          fill="#00B1EF" p-id="5204"></path>
</svg>