<svg xmlns="http://www.w3.org/2000/svg" xmlns:xlink="http://www.w3.org/1999/xlink" fill="none"
    version="1.1" width="500" height="500" viewBox="0 0 500 500">
    <defs>
        <clipPath id="master_svg0_1_075">
            <rect x="0" y="0" width="500.0000305175781" height="500" rx="0" />
        </clipPath>
    </defs>
    <g>
        <g clip-path="url(#master_svg0_1_075)">
            <g>
                <path
                    d="M80.8058,39.139133969116216C92.5269,27.41812396911621,108.424,20.83333396911621,125,20.83333396911621C125,20.83333396911621,270.83299999999997,20.83333396911621,270.83299999999997,20.83333396911621C276.358,20.83333396911621,281.658,23.02827396911621,285.565,26.93527396911621C285.565,26.93527396911621,431.398,172.7683339691162,431.398,172.7683339691162C435.304,176.67533396911622,437.5,181.9743339691162,437.5,187.5003339691162C437.5,187.5003339691162,437.5,416.66633396911624,437.5,416.66633396911624C437.5,433.24333396911624,430.915,449.1393339691162,419.194,460.8603339691162C407.473,472.5813339691162,391.577,479.16633396911624,375,479.16633396911624C375,479.16633396911624,125,479.16633396911624,125,479.16633396911624C108.424,479.16633396911624,92.5269,472.5813339691162,80.8058,460.8603339691162C69.08479,449.1393339691162,62.5,433.24333396911624,62.5,416.66633396911624C62.5,416.66633396911624,62.5,83.33333396911621,62.5,83.33333396911621C62.5,66.75733396911622,69.08479,50.86023396911621,80.8058,39.139133969116216C80.8058,39.139133969116216,80.8058,39.139133969116216,80.8058,39.139133969116216ZM125,62.50003396911621C119.47460000000001,62.50003396911621,114.1756,64.69503396911621,110.2685,68.60183396911621C106.3617,72.50893396911621,104.16669999999999,77.80793396911622,104.16669999999999,83.33333396911621C104.16669999999999,83.33333396911621,104.16669999999999,416.66633396911624,104.16669999999999,416.66633396911624C104.16669999999999,422.1913339691162,106.3617,427.4913339691162,110.2685,431.3983339691162C114.1756,435.3043339691162,119.47460000000001,437.5003339691162,125,437.5003339691162C125,437.5003339691162,375,437.5003339691162,375,437.5003339691162C380.525,437.5003339691162,385.825,435.3043339691162,389.731,431.3983339691162C393.638,427.4913339691162,395.833,422.1913339691162,395.833,416.66633396911624C395.833,416.66633396911624,395.833,208.3333339691162,395.833,208.3333339691162C395.833,208.3333339691162,270.83299999999997,208.3333339691162,270.83299999999997,208.3333339691162C259.327,208.3333339691162,250,199.0063339691162,250,187.5003339691162C250,187.5003339691162,250,62.50003396911621,250,62.50003396911621C250,62.50003396911621,125,62.50003396911621,125,62.50003396911621C125,62.50003396911621,125,62.50003396911621,125,62.50003396911621ZM291.66700000000003,91.96273396911621C291.66700000000003,91.96273396911621,366.371,166.6663339691162,366.371,166.6663339691162C366.371,166.6663339691162,291.66700000000003,166.6663339691162,291.66700000000003,166.6663339691162C291.66700000000003,166.6663339691162,291.66700000000003,91.96273396911621,291.66700000000003,91.96273396911621C291.66700000000003,91.96273396911621,291.66700000000003,91.96273396911621,291.66700000000003,91.96273396911621Z"
                    fill-rule="evenodd" fill="#FFA73C" fill-opacity="1" />
            </g>
        </g>
        <g>
            <rect x="0" y="229" width="300" height="123" rx="12" fill="#FFA73C" fill-opacity="1" />
        </g>
        <g>
            <path
                d="M49.212,328.079C61.081,328.079,65.97800000000001,319.696,65.97800000000001,309.155L65.97800000000001,266.161L58.259,266.161L58.259,308.408C58.259,317.621,55.022,321.356,48.465,321.356C44.066,321.356,40.663,319.36400000000003,37.924,314.467L32.446,318.451C36.015,324.759,41.492999999999995,328.079,49.212,328.079ZM90.629,327L98.265,327L98.265,302.764L108.308,302.764C121.671,302.764,130.71800000000002,296.871,130.71800000000002,284.006C130.71800000000002,270.726,121.588,266.161,107.976,266.161L90.629,266.161L90.629,327ZM98.265,296.539L98.265,272.386L106.98,272.386C117.687,272.386,123.082,275.125,123.082,284.006C123.082,292.721,118.019,296.539,107.312,296.539L98.265,296.539ZM151.468,327L187.407,327L187.407,320.443L159.104,320.443L159.104,298.282L182.178,298.282L182.178,291.725L159.104,291.725L159.104,272.635L186.494,272.635L186.494,266.161L151.468,266.161L151.468,327ZM232.559,328.079C240.693,328.079,247.416,325.091,251.317,321.024L251.317,295.46L231.314,295.46L231.314,301.851L244.262,301.851L244.262,317.78700000000003C241.855,320.028,237.622,321.356,233.306,321.356C220.275,321.356,212.971,311.728,212.971,296.373C212.971,281.18399999999997,220.939,271.805,233.223,271.805C239.282,271.805,243.266,274.378,246.337,277.532L250.487,272.552C247.001,268.9,241.44,265.082,232.974,265.082C216.872,265.082,205.086,276.951,205.086,296.622C205.086,316.376,216.54,328.079,232.559,328.079Z"
                fill="#FFFFFF" fill-opacity="1" />
        </g>
    </g>
</svg>