<svg xmlns="http://www.w3.org/2000/svg" xmlns:xlink="http://www.w3.org/1999/xlink" fill="none"
    version="1.1" width="500" height="500" viewBox="0 0 500 500">
    <defs>
        <clipPath id="master_svg0_1_075">
            <rect x="0" y="0" width="500.0000305175781" height="500" rx="0" />
        </clipPath>
    </defs>
    <g>
        <g clip-path="url(#master_svg0_1_075)">
            <g>
                <path
                    d="M80.8058,39.139133969116216C92.5269,27.41812396911621,108.424,20.83333396911621,125,20.83333396911621C125,20.83333396911621,270.83299999999997,20.83333396911621,270.83299999999997,20.83333396911621C276.358,20.83333396911621,281.658,23.02827396911621,285.565,26.93527396911621C285.565,26.93527396911621,431.398,172.7683339691162,431.398,172.7683339691162C435.304,176.67533396911622,437.5,181.9743339691162,437.5,187.5003339691162C437.5,187.5003339691162,437.5,416.66633396911624,437.5,416.66633396911624C437.5,433.24333396911624,430.915,449.1393339691162,419.194,460.8603339691162C407.473,472.5813339691162,391.577,479.16633396911624,375,479.16633396911624C375,479.16633396911624,125,479.16633396911624,125,479.16633396911624C108.424,479.16633396911624,92.5269,472.5813339691162,80.8058,460.8603339691162C69.08479,449.1393339691162,62.5,433.24333396911624,62.5,416.66633396911624C62.5,416.66633396911624,62.5,83.33333396911621,62.5,83.33333396911621C62.5,66.75733396911622,69.08479,50.86023396911621,80.8058,39.139133969116216C80.8058,39.139133969116216,80.8058,39.139133969116216,80.8058,39.139133969116216ZM125,62.50003396911621C119.47460000000001,62.50003396911621,114.1756,64.69503396911621,110.2685,68.60183396911621C106.3617,72.50893396911621,104.16669999999999,77.80793396911622,104.16669999999999,83.33333396911621C104.16669999999999,83.33333396911621,104.16669999999999,416.66633396911624,104.16669999999999,416.66633396911624C104.16669999999999,422.1913339691162,106.3617,427.4913339691162,110.2685,431.3983339691162C114.1756,435.3043339691162,119.47460000000001,437.5003339691162,125,437.5003339691162C125,437.5003339691162,375,437.5003339691162,375,437.5003339691162C380.525,437.5003339691162,385.825,435.3043339691162,389.731,431.3983339691162C393.638,427.4913339691162,395.833,422.1913339691162,395.833,416.66633396911624C395.833,416.66633396911624,395.833,208.3333339691162,395.833,208.3333339691162C395.833,208.3333339691162,270.83299999999997,208.3333339691162,270.83299999999997,208.3333339691162C259.327,208.3333339691162,250,199.0063339691162,250,187.5003339691162C250,187.5003339691162,250,62.50003396911621,250,62.50003396911621C250,62.50003396911621,125,62.50003396911621,125,62.50003396911621C125,62.50003396911621,125,62.50003396911621,125,62.50003396911621ZM291.66700000000003,91.96273396911621C291.66700000000003,91.96273396911621,366.371,166.6663339691162,366.371,166.6663339691162C366.371,166.6663339691162,291.66700000000003,166.6663339691162,291.66700000000003,166.6663339691162C291.66700000000003,166.6663339691162,291.66700000000003,91.96273396911621,291.66700000000003,91.96273396911621C291.66700000000003,91.96273396911621,291.66700000000003,91.96273396911621,291.66700000000003,91.96273396911621Z"
                    fill-rule="evenodd" fill="#0080B2" fill-opacity="1" />
            </g>
        </g>
        <g>
            <rect x="0" y="229" width="300" height="123" rx="12" fill="#0080B2" fill-opacity="1" />
        </g>
        <g>
            <path
                d="M96.273,327L103.992,327L103.992,272.635L122.418,272.635L122.418,266.161L77.84700000000001,266.161L77.84700000000001,272.635L96.273,272.635L96.273,327ZM141.674,327L149.31,327L149.31,266.161L141.674,266.161L141.674,327ZM174.293,327L181.929,327L181.929,299.693L205.169,299.693L205.169,293.219L181.929,293.219L181.929,272.635L209.319,272.635L209.319,266.161L174.293,266.161L174.293,327Z"
                fill="#FFFFFF" fill-opacity="1" />
        </g>
    </g>
</svg>