<?xml version="1.0" standalone="no"?><!DOCTYPE svg PUBLIC "-//W3C//DTD SVG 1.1//EN" "http://www.w3.org/Graphics/SVG/1.1/DTD/svg11.dtd"><svg t="1711958068026" class="icon" viewBox="0 0 1366 1024" version="1.1" xmlns="http://www.w3.org/2000/svg" p-id="15825" xmlns:xlink="http://www.w3.org/1999/xlink" width="266.796875" height="200"><path d="M1366.782293 739.555556a284.444444 284.444444 0 0 1-284.444444 284.444444h-341.333333v-316.871111h159.857777a28.444444 28.444444 0 0 0 20.48-48.355556L704.595627 438.044444a28.444444 28.444444 0 0 0-40.391111 0l-217.315556 220.728889a28.444444 28.444444 0 0 0 20.48 48.355556H627.226738V1024H342.782293a369.208889 369.208889 0 0 1-25.031111-733.866667A455.111111 455.111111 0 0 1 1196.115627 455.111111v23.324445A284.444444 284.444444 0 0 1 1366.782293 739.555556z" fill="#3E2AD1" p-id="15826"></path></svg>